<?xml version="1.0" encoding="UTF-8"?>
<svg xmlns="http://www.w3.org/2000/svg" id="Layer_1" data-name="Layer 1" viewBox="0 0 24 24">
  <path d="m20.822,5.883l-1.183.964.489,1.49c.067.202,0,.424-.169.553-.169.129-.4.138-.578.023l-1.377-.897-1.354.906c-.084.056-.181.084-.278.084-.106,0-.211-.033-.3-.1-.17-.127-.241-.348-.177-.55l.47-1.508-1.189-.967c-.16-.136-.218-.357-.146-.553.072-.197.26-.328.469-.328h1.5l.531-1.49c.073-.196.26-.325.469-.325s.396.13.469.325l.531,1.49h1.5c.21,0,.398.131.47.329s.013.419-.148.554Zm-5.852-.554c-.072-.197-.26-.329-.47-.329h-1.5l-.531-1.49c-.073-.196-.26-.325-.469-.325s-.396.13-.469.325l-.531,1.49h-1.5c-.21,0-.397.131-.469.328-.073.197-.014.418.146.553l1.189.967-.47,1.508c-.063.202.007.423.177.55.089.066.194.1.3.1.097,0,.194-.028.278-.084l1.354-.906,1.377.897c.178.115.409.106.578-.023.168-.13.236-.352.169-.553l-.489-1.49,1.183-.964c.161-.135.22-.357.148-.554Zm-10.898,3.578c.089.066.194.1.3.1.097,0,.194-.028.278-.084l1.354-.906,1.377.897c.178.115.409.106.578-.023.168-.13.236-.352.169-.553l-.489-1.49,1.183-.964c.161-.135.22-.357.148-.554s-.26-.329-.47-.329h-1.5l-.531-1.49c-.073-.196-.26-.325-.469-.325s-.396.13-.469.325l-.531,1.49h-1.5c-.21,0-.397.131-.469.328-.073.197-.014.418.146.553l1.189.967-.47,1.508c-.063.202.007.423.177.55Zm13.684,10.03l-4.756-1.783v-4.546c0-1.273-.896-2.379-2.084-2.573-.733-.117-1.475.085-2.035.562-.56.476-.881,1.17-.881,1.905v7.424l-.138.067-1.676-1.335c-1.007-.923-2.578-.866-3.512.135-.941,1.007-.894,2.588.106,3.524l1.64,1.548c.092.087.214.135.341.135.448,0,.667-.547.342-.856l-1.633-1.551c-.599-.562-.629-1.514-.064-2.118.559-.6,1.5-.634,2.106-.08.013.012,1.727,1.379,1.727,1.379.328.261.769.311,1.147.128.379-.183.614-.557.614-.978v-7.424c0-.44.193-.857.529-1.143.341-.29.777-.409,1.227-.336.709.115,1.245.797,1.245,1.586v4.893c0,.208.129.395.324.468l5.08,1.905c1.601.6,2.596,1.99,2.596,3.627,0,.276.224.5.5.5s.5-.224.5-.5c0-2.064-1.243-3.813-3.244-4.563ZM19.5,0H4.5C2.019,0,0,2.019,0,4.5v3c0,2.481,2.019,4.5,4.5,4.5h1c.276,0,.5-.224.5-.5s-.224-.5-.5-.5h-1c-1.93,0-3.5-1.57-3.5-3.5v-3c0-1.93,1.57-3.5,3.5-3.5h15c1.93,0,3.5,1.57,3.5,3.5v3c0,1.93-1.57,3.5-3.5,3.5h-4c-.276,0-.5.224-.5.5s.224.5.5.5h4c2.481,0,4.5-2.019,4.5-4.5v-3c0-2.481-2.019-4.5-4.5-4.5Z"/>
</svg>
