<?xml version="1.0" encoding="UTF-8"?>
<svg xmlns="http://www.w3.org/2000/svg" xmlns:xlink="http://www.w3.org/1999/xlink" width="307px" height="200px" viewBox="0 0 307 200" version="1.1">
<g id="surface1">
<path style=" stroke:none;fill-rule:evenodd;fill:rgb(82.745099%,37.254903%,59.215689%);fill-opacity:1;" d="M 143.125 27.007812 C 130.09375 40.824219 123.929688 57.253906 124.859375 75.699219 C 125.308594 84.605469 124.949219 85.136719 121.152344 81.144531 C 116.335938 76.082031 104.203125 69.425781 95.824219 67.253906 C 86.433594 64.824219 68.09375 65 65.546875 67.550781 C 64.628906 68.46875 63.191406 72.460938 62.351562 76.429688 C 61.019531 82.703125 61.082031 84.894531 62.855469 93.332031 C 65.359375 105.277344 71.207031 116.898438 74.984375 117.433594 C 78.523438 117.9375 78.421875 115.324219 74.679688 109.390625 C 69.59375 101.335938 67.683594 94.3125 67.746094 83.902344 C 67.824219 71.238281 68.417969 70.589844 79.933594 70.589844 C 89.875 70.589844 100.566406 73.472656 109.046875 78.441406 C 116.171875 82.617188 125.714844 93.464844 131.152344 103.574219 C 133.789062 108.476562 136.761719 112.496094 137.914062 112.71875 C 140.949219 113.300781 140.539062 109.113281 136.925781 102.636719 C 130.519531 91.164062 127.960938 74.074219 130.675781 60.941406 C 133.59375 46.851562 148.226562 24.285156 153.210938 26.195312 C 156.292969 27.378906 167.75 42.042969 172.148438 50.4375 C 184.609375 74.210938 182.238281 99.371094 165.261719 123.527344 C 161.171875 129.351562 160.816406 131.765625 164.050781 131.765625 C 167.960938 131.765625 181.277344 107.125 183.34375 96.070312 C 185.078125 86.777344 193.050781 78.980469 207.019531 72.917969 C 212.371094 70.59375 215.523438 70.097656 225.25 70.054688 L 237.011719 70 L 237.398438 78.234375 C 238.671875 105.566406 222.871094 126.078125 192.625 136.355469 C 188.953125 137.601562 186.28125 139.25 186.054688 140.40625 C 185.386719 143.820312 192.429688 142.6875 203.1875 137.648438 C 208.707031 135.058594 214.121094 132.941406 215.214844 132.941406 C 219.140625 132.941406 230.746094 138.492188 235.996094 142.882812 C 240.730469 146.839844 245.820312 153.347656 245.832031 155.457031 C 245.832031 155.867188 242.261719 159.105469 237.894531 162.648438 C 219.695312 177.414062 198.773438 182.226562 181.75 175.558594 C 176.292969 173.421875 165.683594 166.472656 160.558594 161.683594 C 130.539062 133.632812 115.101562 126.445312 93.511719 130.472656 C 80.664062 132.867188 60.167969 145.007812 54.589844 153.523438 C 52.734375 156.355469 52.792969 156.65625 55.976562 160.886719 C 62.101562 169.019531 73.152344 177.605469 82.574219 181.542969 C 89.871094 184.589844 102.777344 186.046875 110.898438 184.734375 C 123.269531 182.738281 138.796875 175.832031 138.796875 172.324219 C 138.796875 169.460938 136.921875 169.460938 131.554688 172.320312 C 113.753906 181.796875 97.183594 182.539062 80.265625 174.617188 C 75.257812 172.269531 62.792969 161.867188 61.023438 158.558594 C 59.773438 156.222656 60.199219 155.46875 65.402344 150.851562 C 68.570312 148.035156 75.628906 143.554688 81.085938 140.894531 C 89.371094 136.855469 92.488281 135.96875 99.945312 135.539062 C 118.03125 134.492188 128.585938 139.453125 150.167969 159.152344 C 170.238281 177.46875 182.160156 183.53125 198.101562 183.53125 C 207.429688 183.53125 220.527344 179.957031 228.878906 175.140625 C 235.589844 171.269531 246.488281 162.800781 249.203125 159.351562 C 251.398438 156.558594 251.433594 156.078125 249.765625 152.003906 C 246.265625 143.453125 236.9375 135.859375 222.617188 129.917969 C 220.070312 128.859375 220.191406 128.601562 226.3125 122.035156 C 237.472656 110.0625 242.265625 97.699219 242.289062 80.804688 C 242.3125 64.871094 242.183594 64.707031 229.789062 64.707031 C 214.328125 64.707031 200.050781 69.242188 190.667969 77.140625 C 188.609375 78.875 186.738281 80.09375 186.507812 79.851562 C 186.28125 79.609375 185.207031 74.910156 184.121094 69.410156 C 181.632812 56.796875 174.941406 42.9375 166.183594 32.253906 C 162.511719 27.78125 159.132812 23.957031 158.671875 23.761719 C 158.210938 23.566406 156.644531 22.375 155.191406 21.113281 C 153.738281 19.855469 152.167969 18.824219 151.699219 18.824219 C 151.230469 18.824219 147.371094 22.507812 143.125 27.007812 "/>
</g>
</svg>
