<svg xmlns="http://www.w3.org/2000/svg" width="261" height="170" viewBox="0 0 261 170" version="1.1">
	<path d="M 121.679 22.957 C 110.600 34.702, 105.361 48.667, 106.152 64.344 C 106.534 71.913, 106.226 72.367, 103 68.974 C 98.906 64.669, 88.588 59.011, 81.467 57.167 C 73.483 55.099, 57.892 55.251, 55.726 57.417 C 54.946 58.197, 53.723 61.593, 53.008 64.964 C 51.875 70.299, 51.931 72.160, 53.436 79.331 C 55.567 89.486, 60.539 99.364, 63.750 99.820 C 66.758 100.247, 66.673 98.027, 63.489 92.982 C 59.166 86.135, 57.543 80.166, 57.596 71.316 C 57.662 60.552, 58.168 60, 67.957 60 C 76.408 60, 85.497 62.451, 92.707 66.675 C 98.765 70.224, 106.878 79.446, 111.500 88.038 C 113.742 92.204, 116.270 95.621, 117.250 95.810 C 119.831 96.307, 119.481 92.747, 116.408 87.242 C 110.963 77.489, 108.786 62.962, 111.097 51.799 C 113.576 39.825, 126.018 20.642, 130.253 22.267 C 132.875 23.273, 142.614 35.735, 146.355 42.872 C 156.948 63.079, 154.933 84.466, 140.501 104.998 C 137.021 109.949, 136.720 112, 139.471 112 C 142.795 112, 154.116 91.055, 155.871 81.659 C 157.347 73.760, 164.126 67.132, 176 61.979 C 180.549 60.005, 183.229 59.584, 191.500 59.546 L 201.500 59.500 201.827 66.500 C 202.911 89.731, 189.478 107.165, 163.762 115.901 C 160.640 116.962, 158.368 118.362, 158.177 119.344 C 157.610 122.248, 163.598 121.284, 172.741 117 C 177.436 114.800, 182.038 113, 182.969 113 C 186.305 113, 196.171 117.720, 200.635 121.451 C 204.659 124.814, 208.986 130.344, 208.996 132.137 C 208.998 132.487, 205.963 135.238, 202.250 138.250 C 186.778 150.803, 168.989 154.893, 154.518 149.224 C 149.879 147.407, 140.858 141.502, 136.500 137.430 C 110.981 113.588, 97.854 107.479, 79.500 110.901 C 68.579 112.938, 51.154 123.257, 46.411 130.495 C 44.834 132.903, 44.882 133.158, 47.588 136.753 C 52.795 143.668, 62.191 150.964, 70.202 154.311 C 76.405 156.903, 87.376 158.139, 94.282 157.024 C 104.799 155.327, 118 149.457, 118 146.477 C 118 144.043, 116.406 144.042, 111.842 146.471 C 96.710 154.527, 82.621 155.157, 68.240 148.423 C 63.983 146.430, 53.385 137.588, 51.879 134.774 C 50.816 132.788, 51.179 132.150, 55.601 128.223 C 58.295 125.829, 64.297 122.021, 68.937 119.759 C 75.980 116.327, 78.629 115.575, 84.970 115.208 C 100.346 114.318, 109.318 118.535, 127.668 135.279 C 144.731 150.847, 154.865 156, 168.418 156 C 176.348 156, 187.484 152.965, 194.584 148.870 C 200.290 145.578, 209.555 138.381, 211.862 135.448 C 213.730 133.074, 213.761 132.667, 212.343 129.204 C 209.367 121.934, 201.434 115.482, 189.260 110.429 C 187.094 109.530, 187.197 109.311, 192.401 103.730 C 201.890 93.554, 205.964 83.044, 205.985 68.684 C 206.006 55.139, 205.897 55, 195.359 55 C 182.215 55, 170.077 58.857, 162.100 65.569 C 160.349 67.043, 158.757 68.080, 158.563 67.874 C 158.369 67.668, 157.456 63.675, 156.533 59 C 154.417 48.277, 148.729 36.498, 141.282 27.417 C 138.162 23.613, 135.289 20.364, 134.897 20.197 C 134.505 20.031, 133.174 19.019, 131.939 17.947 C 130.704 16.876, 129.367 16, 128.968 16 C 128.569 16, 125.289 19.131, 121.679 22.957" stroke="none" fill="#d35f97" fill-rule="evenodd"/>
</svg>