<svg width="512" height="512" viewBox="0 0 512 512" fill="none" xmlns="http://www.w3.org/2000/svg">
<path fill-rule="evenodd" clip-rule="evenodd" d="M349.091 186.182C349.091 210.871 339.283 234.549 321.825 252.007C304.367 269.465 280.689 279.273 256 279.273C231.311 279.273 207.633 269.465 190.175 252.007C172.717 234.549 162.909 210.871 162.909 186.182C162.909 161.493 172.717 137.815 190.175 120.357C207.633 102.899 231.311 93.0911 256 93.0911C280.689 93.0911 304.367 102.899 321.825 120.357C339.283 137.815 349.091 161.493 349.091 186.182ZM302.545 186.182C302.545 198.527 297.641 210.366 288.912 219.095C280.183 227.824 268.344 232.727 256 232.727C243.655 232.727 231.816 227.824 223.087 219.095C214.358 210.366 209.454 198.527 209.454 186.182C209.454 173.837 214.358 161.998 223.087 153.269C231.816 144.54 243.655 139.637 256 139.637C268.344 139.637 280.183 144.54 288.912 153.269C297.641 161.998 302.545 173.837 302.545 186.182Z" fill="#F6F4F0"/>
<path fill-rule="evenodd" clip-rule="evenodd" d="M256 0C114.618 0 0 114.618 0 256C0 397.382 114.618 512 256 512C397.382 512 512 397.382 512 256C512 114.618 397.382 0 256 0ZM46.5455 256C46.5455 304.64 63.1389 349.417 90.9498 384.977C110.486 359.334 135.684 338.552 164.576 324.253C193.469 309.954 225.275 302.525 257.513 302.545C289.335 302.508 320.746 309.739 349.35 323.686C377.954 337.633 402.994 357.928 422.563 383.023C442.728 356.575 456.305 325.707 462.171 292.971C468.037 260.235 466.023 226.572 456.297 194.769C446.57 162.966 429.41 133.936 406.237 110.081C383.063 86.2261 354.543 68.2324 323.034 57.5886C291.526 46.9448 257.936 43.9569 225.044 48.8721C192.152 53.7873 160.903 66.4644 133.883 85.8543C106.862 105.244 84.848 130.79 69.6606 160.377C54.4732 189.964 46.5497 222.743 46.5455 256ZM256 465.455C207.916 465.532 161.283 448.991 123.997 418.63C139.004 397.14 158.981 379.595 182.227 367.487C205.474 355.379 231.302 349.068 257.513 349.091C283.396 349.068 308.911 355.222 331.939 367.041C354.966 378.861 374.84 396.004 389.911 417.047C352.337 448.396 304.934 465.531 256 465.455Z" fill="#F6F4F0"/>
</svg>
