<svg xmlns="http://www.w3.org/2000/svg" width="574" height="435" viewBox="0 0 574 435" version="1.1">
	<path d="M 280.080 110.161 C 273.330 117.059, 266.940 128.849, 264.963 138.052 C 264.307 141.106, 263.935 147.227, 264.136 151.655 C 264.475 159.120, 264.374 159.626, 262.751 158.612 C 261.788 158.011, 261 157.230, 261 156.877 C 261 155.705, 248.563 148.110, 244.017 146.506 C 234.010 142.975, 215.075 142.642, 213.025 145.960 C 212.580 146.679, 211.652 149.928, 210.962 153.180 C 209.880 158.276, 209.949 160.227, 211.461 167.297 C 213.605 177.324, 218.665 187.361, 221.808 187.820 C 224.782 188.253, 224.608 186.477, 221.028 179.868 C 216.813 172.087, 214.627 162.827, 215.418 156.102 C 215.771 153.093, 216.552 150.040, 217.153 149.316 C 218.475 147.722, 230.414 147.568, 236.888 149.061 C 249.865 152.052, 261.397 161.403, 268.892 175.013 C 271.488 179.726, 274.321 183.631, 275.279 183.815 C 277.946 184.329, 277.416 181.085, 273.478 172.792 C 267.965 161.183, 266.708 149.884, 269.614 138.064 C 271.719 129.502, 276.341 120.847, 282.169 114.555 C 287.736 108.546, 287.995 108.613, 295.731 118.091 C 315.175 141.911, 316.110 168.356, 298.380 193.034 C 294.918 197.854, 294.671 200, 297.579 200 C 300.837 200, 312.587 178.289, 313.692 170.227 C 314.703 162.853, 320.717 156.547, 331.817 151.224 C 338.160 148.181, 340.403 147.648, 348.670 147.215 C 359.781 146.634, 359.962 146.761, 359.985 155.114 C 360.040 175.234, 350.514 190.153, 331.483 199.755 C 328.192 201.415, 323.541 203.359, 321.146 204.076 C 316.754 205.390, 314.966 207.366, 316.647 209.047 C 317.909 210.309, 324.063 208.483, 332.360 204.387 C 336.133 202.524, 339.840 201, 340.599 201 C 341.358 201, 344.862 202.154, 348.385 203.564 C 355.598 206.452, 361.782 211.292, 365.085 216.637 L 367.311 220.239 363.405 223.610 C 350.802 234.490, 339.898 239.173, 327 239.245 C 312.739 239.325, 305.205 235.523, 288 219.561 C 268.372 201.352, 254.582 195.705, 237.537 198.895 C 227.094 200.849, 212.980 208.873, 205.156 217.304 C 202.254 220.430, 202.740 222.177, 208.056 227.726 C 224.546 244.939, 243.467 249.742, 264 241.928 C 271.122 239.217, 276 236.189, 276 234.477 C 276 231.915, 274.242 232.039, 268.276 235.020 C 251.071 243.617, 235.403 243.031, 221.213 233.258 C 215.755 229.499, 209 222.761, 209 221.075 C 209 219.488, 218.244 212.159, 224.368 208.889 C 240.521 200.266, 257.419 201.184, 271.227 211.435 C 274.376 213.773, 280.401 218.794, 284.616 222.593 C 303.934 240.005, 313.201 244.495, 328.231 243.723 C 332.779 243.490, 338.402 242.782, 340.727 242.149 C 348.927 239.920, 362.024 231.772, 368.916 224.611 L 372.332 221.062 370.497 216.994 C 369.488 214.757, 366.666 210.929, 364.224 208.488 C 359.956 204.220, 349.269 198, 346.203 198 C 345.325 198, 346.599 195.998, 349.347 193.060 C 360.022 181.647, 364 171.388, 364 155.265 C 364 147.558, 363.652 144.956, 362.493 143.994 C 361.403 143.090, 358.013 142.884, 350.243 143.250 C 337.589 143.847, 329.704 146.354, 321.899 152.262 C 319.090 154.387, 316.684 155.985, 316.552 155.813 C 316.419 155.641, 315.561 151.675, 314.645 147 C 312.917 138.179, 308.084 126.719, 303.363 120.244 C 299.349 114.741, 288.751 104, 287.333 104 C 286.660 104, 283.396 106.772, 280.080 110.161 M 94.500 269.835 C 89.711 272.130, 87.890 274.884, 87.820 279.938 C 87.742 285.625, 89.289 287.485, 97.532 291.614 C 106.295 296.003, 107.441 297.108, 106.620 300.376 C 105.632 304.313, 98.581 304.773, 92.044 301.326 C 89.764 300.124, 89.319 300.204, 87.750 302.103 C 86.787 303.268, 86 304.798, 86 305.502 C 86 307.673, 94.052 310.284, 100.692 310.267 C 108.737 310.247, 112.979 307.896, 114.905 302.389 C 117.497 294.978, 113.780 289.058, 104.317 285.525 C 98.521 283.361, 96 281.330, 96 278.824 C 96 275.633, 100.203 274.503, 106.679 275.953 C 111.864 277.113, 112.478 277.066, 113.681 275.421 C 115.644 272.737, 115.303 271.461, 112.250 270.054 C 107.360 267.802, 98.959 267.698, 94.500 269.835 M 130.500 269.573 C 125.514 272.166, 123.039 275.130, 121.482 280.373 C 118.655 289.891, 120.521 301.255, 125.726 306.233 C 129.060 309.420, 136.149 311.207, 141.065 310.098 C 150.299 308.015, 154.298 301.758, 154.299 289.386 C 154.300 282.693, 153.879 280.510, 151.897 276.916 C 147.633 269.186, 137.759 265.797, 130.500 269.573 M 279.359 270.148 C 273.773 273.008, 270.847 278.385, 270.245 286.892 C 269.348 299.570, 273.943 307.964, 282.823 309.869 C 291.587 311.748, 299.319 308.005, 302.623 300.282 C 304.896 294.970, 304.420 282.256, 301.750 276.966 C 297.584 268.713, 287.912 265.768, 279.359 270.148 M 161.162 285.183 C 161.557 302.607, 162.339 305.497, 167.392 308.216 C 174.002 311.773, 184.022 310.672, 188.612 305.885 L 191.500 302.874 191.816 285.937 L 192.132 269 188.066 269 L 184 269 184 284.500 C 184 298.667, 183.828 300.172, 182 302 C 179.607 304.393, 175.285 304.588, 172.223 302.443 C 170.126 300.975, 169.994 300.136, 169.900 287.693 C 169.771 270.603, 169.481 269.588, 164.606 269.183 L 160.792 268.867 161.162 285.183 M 201.191 288.538 C 201.445 304.580, 201.768 308.246, 203 309.023 C 203.825 309.543, 208.593 309.976, 213.595 309.985 C 221.149 309.997, 222.970 309.690, 224.345 308.171 C 225.255 307.165, 226 305.590, 226 304.671 C 226 303.249, 224.809 303, 218 303 L 210 303 210 287.200 C 210 269.830, 209.737 269, 204.241 269 L 200.881 269 201.191 288.538 M 255 284.878 C 255 303.158, 254.822 303.578, 247.418 302.744 C 243.319 302.282, 242.741 302.475, 241.753 304.642 C 240.209 308.032, 241.774 309.234, 248.460 309.788 C 255.221 310.349, 258.948 308.924, 261.250 304.898 C 262.721 302.325, 263 299.224, 263 285.419 L 263 269 259 269 L 255 269 255 284.878 M 311 284.040 C 311 297.131, 311.260 299.590, 313.010 303.019 C 315.535 307.968, 319.669 310.143, 326.553 310.143 C 333.189 310.143, 336.745 308.510, 339.713 304.102 C 341.857 300.917, 342 299.711, 342 284.852 L 342 269 338 269 L 334 269 334 283.566 C 334 301.405, 333.053 303.952, 326.405 303.985 C 320.573 304.014, 319.535 301.506, 319.229 286.648 C 318.870 269.257, 318.801 269, 314.481 269 L 311 269 311 284.040 M 351.229 289.250 L 351.500 309.500 355.250 309.810 L 359 310.121 359 302.619 C 359 298.494, 359.461 294.833, 360.024 294.485 C 360.588 294.137, 362.344 294.136, 363.926 294.484 C 366.387 295.024, 367.216 296.157, 369.652 302.308 C 372.237 308.836, 372.777 309.524, 375.500 309.761 C 381.321 310.266, 381.547 309.016, 377.258 300.046 L 373.328 291.826 376.164 288.990 C 378.500 286.654, 379 285.297, 379 281.299 C 379 271.948, 374.573 269, 360.529 269 L 350.959 269 351.229 289.250 M 387.446 270.281 C 387.175 270.985, 387.077 280.098, 387.227 290.531 L 387.500 309.500 391 309.500 L 394.500 309.500 394.500 294.844 C 394.500 286.783, 394.837 280.397, 395.250 280.653 C 395.663 280.909, 396 281.488, 396 281.940 C 396 282.392, 398.940 288.891, 402.533 296.381 L 409.066 310 413.533 310 L 418 310 418 289.500 L 418 269 415.107 269 C 413.391 269, 411.967 269.644, 411.607 270.582 C 411.273 271.452, 410.996 278.314, 410.992 285.832 L 410.984 299.500 405.906 288.500 C 403.113 282.450, 399.983 275.587, 398.950 273.250 C 397.135 269.145, 396.916 269, 392.504 269 C 389.715 269, 387.746 269.498, 387.446 270.281 M 428 287.929 C 428 303.803, 428.254 307.111, 429.571 308.429 C 430.789 309.646, 433.379 310, 441.071 310 C 449.767 310, 451.256 309.744, 453.063 307.938 C 456.576 304.424, 455.071 303.523, 445.169 303.212 L 436 302.925 436 297.962 L 436 293 442.450 293 C 449.307 293, 451.261 291.712, 450.253 287.858 C 449.838 286.274, 448.750 286, 442.883 286 L 436 286 436 281 L 436 276 444.481 276 C 452.641 276, 452.985 275.907, 453.575 273.557 C 453.912 272.213, 453.894 270.638, 453.535 270.057 C 453.133 269.406, 448.102 269, 440.441 269 L 428 269 428 287.929 M 457.684 269.750 C 457.445 270.163, 459.532 275.675, 462.321 282 C 466.599 291.702, 467.479 294.751, 467.946 301.500 L 468.500 309.500 472.250 309.810 L 476 310.121 476 304.267 C 476 299.354, 476.964 296.138, 482 284.246 C 485.300 276.454, 488 269.835, 488 269.539 C 488 269.243, 486.235 269, 484.078 269 C 480.425 269, 480.073 269.258, 478.957 272.750 C 478.298 274.813, 477.363 276.928, 476.879 277.450 C 476.396 277.973, 476 278.930, 476 279.578 C 476 280.226, 475.275 282.490, 474.390 284.610 L 472.779 288.464 470.048 280.972 C 466.219 270.470, 465.147 269, 461.318 269 C 459.558 269, 457.923 269.337, 457.684 269.750 M 132.253 276.979 C 129.683 279.374, 128.521 286.057, 129.320 293.854 C 129.773 298.272, 130.466 299.989, 132.505 301.750 C 137.327 305.913, 143.128 303.802, 144.956 297.221 C 147.148 289.326, 145.577 279.218, 141.739 276.529 C 138.736 274.427, 134.792 274.613, 132.253 276.979 M 283.229 275.669 C 279.551 277.149, 277.418 291.708, 279.916 298.280 C 282.195 304.274, 288.195 305.896, 292.428 301.663 C 297.040 297.051, 296.717 280.619, 291.939 276.750 C 289.870 275.074, 285.925 274.585, 283.229 275.669 M 359.202 281.250 L 359.500 287.500 363.905 287.295 C 369.030 287.057, 369.745 286.525, 370.585 282.323 C 371.461 277.946, 368.390 275, 362.952 275 L 358.905 275 359.202 281.250" stroke="none" fill="#fe62ab" fill-rule="evenodd"/>
</svg>