<svg width="512" height="512" viewBox="0 0 512 512" fill="none" xmlns="http://www.w3.org/2000/svg">
<circle cx="256" cy="256" r="256" fill="#F7F5F2"/>
<path fill-rule="evenodd" clip-rule="evenodd" d="M346.227 187.455C346.227 211.517 336.669 234.594 319.654 251.609C302.639 268.623 279.562 278.182 255.5 278.182C231.438 278.182 208.361 268.623 191.346 251.609C174.331 234.594 164.773 211.517 164.773 187.455C164.773 163.392 174.331 140.315 191.346 123.301C208.361 106.286 231.438 96.7274 255.5 96.7274C279.562 96.7274 302.639 106.286 319.654 123.301C336.669 140.315 346.227 163.392 346.227 187.455ZM300.864 187.455C300.864 199.486 296.084 211.024 287.577 219.532C279.07 228.039 267.531 232.818 255.5 232.818C243.469 232.818 231.93 228.039 223.423 219.532C214.916 211.024 210.136 199.486 210.136 187.455C210.136 175.424 214.916 163.885 223.423 155.378C231.93 146.87 243.469 142.091 255.5 142.091C267.531 142.091 279.07 146.87 287.577 155.378C296.084 163.885 300.864 175.424 300.864 187.455Z" fill="#1F2937"/>
<path fill-rule="evenodd" clip-rule="evenodd" d="M255.5 6C117.708 6 6 117.708 6 255.5C6 393.292 117.708 505 255.5 505C393.292 505 505 393.292 505 255.5C505 117.708 393.292 6 255.5 6ZM51.3636 255.5C51.3636 302.905 67.5358 346.545 94.6406 381.203C113.681 356.21 138.239 335.956 166.398 322.02C194.557 308.084 225.555 300.843 256.974 300.864C287.989 300.828 318.602 307.875 346.48 321.467C374.357 335.06 398.762 354.84 417.834 379.297C437.486 353.522 450.719 323.437 456.436 291.532C462.153 259.627 460.191 226.82 450.711 195.824C441.231 164.828 424.507 136.535 401.922 113.286C379.337 90.0368 351.541 72.4999 320.832 62.1264C290.124 51.7528 257.387 48.8408 225.33 53.6312C193.273 58.4216 162.817 70.7768 136.483 89.6745C110.149 108.572 88.6936 133.469 73.8919 162.305C59.0901 191.141 51.3677 223.087 51.3636 255.5ZM255.5 459.636C208.637 459.712 163.188 443.591 126.849 414.001C141.474 393.057 160.944 375.957 183.6 364.156C206.257 352.356 231.429 346.205 256.974 346.227C282.201 346.205 307.068 352.203 329.51 363.722C351.953 375.241 371.323 391.949 386.011 412.458C349.391 443.011 303.192 459.711 255.5 459.636Z" fill="#1F2937"/>
</svg>
