<svg width="512" height="512" viewBox="0 0 512 512" fill="none" xmlns="http://www.w3.org/2000/svg">
<circle cx="256" cy="256" r="256" fill="#D9D9D9"/>
<path fill-rule="evenodd" clip-rule="evenodd" d="M346.591 187.182C346.591 211.341 336.994 234.51 319.911 251.593C302.828 268.676 279.659 278.273 255.5 278.273C231.341 278.273 208.172 268.676 191.089 251.593C174.006 234.51 164.409 211.341 164.409 187.182C164.409 163.023 174.006 139.854 191.089 122.771C208.172 105.688 231.341 96.0911 255.5 96.0911C279.659 96.0911 302.828 105.688 319.911 122.771C336.994 139.854 346.591 163.023 346.591 187.182ZM301.045 187.182C301.045 199.261 296.247 210.846 287.705 219.387C279.164 227.929 267.579 232.727 255.5 232.727C243.42 232.727 231.836 227.929 223.294 219.387C214.753 210.846 209.954 199.261 209.954 187.182C209.954 175.103 214.753 163.518 223.294 154.976C231.836 146.435 243.42 141.637 255.5 141.637C267.579 141.637 279.164 146.435 287.705 154.976C296.247 163.518 301.045 175.103 301.045 187.182Z" fill="#1F2937"/>
<path fill-rule="evenodd" clip-rule="evenodd" d="M255.5 5C117.156 5 5 117.156 5 255.5C5 393.844 117.156 506 255.5 506C393.844 506 506 393.844 506 255.5C506 117.156 393.844 5 255.5 5ZM50.5455 255.5C50.5455 303.095 66.7824 346.91 93.9958 381.706C113.112 356.614 137.769 336.278 166.041 322.286C194.313 308.294 225.435 301.025 256.98 301.045C288.119 301.009 318.855 308.084 346.844 321.732C374.833 335.379 399.336 355.238 418.484 379.794C438.216 353.915 451.501 323.709 457.241 291.677C462.981 259.644 461.011 226.705 451.493 195.585C441.976 164.465 425.185 136.058 402.509 112.716C379.833 89.3736 351.925 71.7664 321.094 61.3513C290.263 50.9362 257.395 48.0125 225.209 52.8221C193.024 57.6317 162.446 70.0364 136.006 89.0098C109.567 107.983 88.0251 132.98 73.164 161.931C58.3029 190.883 50.5496 222.957 50.5455 255.5ZM255.5 460.455C208.449 460.531 162.818 444.344 126.333 414.636C141.017 393.608 160.565 376.439 183.312 364.592C206.059 352.744 231.333 346.569 256.98 346.591C282.308 346.569 307.275 352.59 329.807 364.156C352.34 375.721 371.787 392.496 386.534 413.087C349.767 443.762 303.383 460.529 255.5 460.455Z" fill="#1F2937"/>
</svg>
