<svg width="526" height="40" viewBox="0 0 526 40" fill="none" xmlns="http://www.w3.org/2000/svg">
<g clip-path="url(#clip0_510_7158)">
<path d="M335.389 0.697709C297.934 1.32266 260.504 2.37085 223.135 3.84229C189.224 4.16634 155.308 4.49039 121.397 4.81443C84.1874 5.17155 46.9778 5.52535 9.77427 5.88247C6.17472 5.91553 0.600636 7.34068 0.048746 9.49328C-0.558333 11.8674 4.88698 12.2642 7.95303 12.2378C32.1319 12.0063 56.3108 11.7748 80.4897 11.5434C70.4269 12.2345 60.3764 12.952 50.3259 13.7026C46.8429 13.9638 41.9801 14.8434 40.8702 16.8968C39.8768 18.7286 42.9796 20.0281 46.2726 20.0612C102.112 20.577 157.957 21.0962 213.796 21.612C225.68 21.7211 237.564 21.8335 249.448 21.9426C232.351 22.9512 215.28 24.1118 198.257 25.4245C171.564 27.4878 144.981 29.9347 118.515 32.7222C115.657 33.0231 111.604 34.3722 111.169 36.1015C110.746 37.7548 114.124 38.8361 116.835 38.8493C180.339 39.1469 243.843 39.4478 307.347 39.7454C325.253 39.8281 343.152 39.914 361.058 39.9967C365.161 40.0165 370.422 39.385 372.489 37.2126C374.334 35.2683 370.876 33.6513 367.35 33.6348C306.219 33.3471 245.088 33.0595 183.957 32.7718C185.662 32.6329 187.36 32.4907 189.065 32.3551C212.165 30.5101 235.344 28.946 258.572 27.6664C305.054 25.1071 351.744 23.6819 398.464 23.4009C400.531 23.3876 402.622 23.381 404.707 23.3744C428.389 23.5926 452.065 23.8142 475.747 24.0324C479.843 24.0688 485.123 23.4075 487.177 21.2483C489.066 19.2643 485.534 17.7466 482.039 17.6705C457.872 17.1481 433.681 16.9232 409.496 16.9993C377.836 16.705 346.176 16.414 314.516 16.1197C258.677 15.6039 202.831 15.0847 146.992 14.5689C142.492 14.5259 137.984 14.4863 133.483 14.4433C162.721 12.7668 192.008 11.3483 221.332 10.1943C282.463 9.60901 343.6 9.02705 404.731 8.44178C441.941 8.08467 479.15 7.73086 516.354 7.37374C519.769 7.34068 524.786 6.07756 525.81 4.17956C526.815 2.32456 523.688 1.08127 520.407 1.01514C458.761 -0.221528 397.041 -0.330646 335.389 0.697709Z" fill="#2E5077"/>
</g>
<defs>
<clipPath id="clip0_510_7158">
<rect width="526" height="40" fill="white"/>
</clipPath>
</defs>
</svg>
